<svg width="71.5" height="62.3" viewBox="0 0 71.5 62.3" xmlns="http://www.w3.org/2000/svg"><g id="svgGroup" stroke-linecap="round" fill-rule="evenodd" font-size="9pt" stroke="#0ea5e9" stroke-width="0.25mm" fill="#0ea5e9" style="stroke:#0ea5e9;stroke-width:0.25mm;fill:#0ea5e9"><path d="M 57.3 0 L 62.7 0 Q 65.5 0 65.5 1.3 Q 65.5 2 64.9 3.4 L 47.3 43.8 Q 49.2 41.1 55.4 35.6 Q 61.4 30.3 64 29.5 Q 65.1 29.2 66.1 29.2 Q 69.9 29.2 69.9 33.2 Q 69.9 34.2 69.4 35.7 Q 68.8 37.6 66.7 39.3 Q 64.6 41.1 62.8 41.1 Q 61.3 41.1 60.6 39.8 Q 61.7 38.1 61.7 37.3 Q 61.7 36.6 61 36.1 Q 60.4 35.8 59.6 35.8 Q 57.7 35.8 56 37.9 Q 53.6 40.9 53.6 46.3 Q 53.6 50.8 55.8 54.5 Q 58.4 58.9 62.4 58.9 Q 66.4 58.9 70.1 53.7 L 71.5 54.9 Q 66.2 62.3 59.8 62.3 L 58.9 62.3 Q 58.4 62.3 57.9 62.2 Q 55.1 61.9 52.5 59 Q 49.2 55.4 49.2 49.9 Q 49.2 45.8 51.5 41.9 Q 44.8 48.3 39.7 60.2 Q 39.1 61.7 36.2 61.7 Q 35.1 61.7 32.8 62.3 Q 36.2 54.5 42.55 39.95 Q 48.9 25.4 58.3 4.2 Q 58.4 3.9 58.45 3.6 Q 58.5 3.3 58.5 3 Q 58.5 1.6 57.3 0 Z M 29.6 34.1 L 31.6 34.4 Q 32.9 34.7 33.8 34.5 Q 32.9 35.4 31.65 37.35 Q 30.4 39.3 28.8 42.4 Q 27.1 45.7 26 48.4 Q 24.9 51.1 24.5 53.2 Q 24.3 54.2 24.2 55.05 Q 24.1 55.9 24.1 56.6 Q 24.1 59.2 25.5 59.2 Q 27.5 59.2 31 54.8 L 31.4 54.3 L 32.8 55.2 L 32.4 55.8 Q 28.3 61.8 24.3 61.8 Q 22.1 61.8 20.7 60.5 Q 18.7 58.8 18.7 54.8 Q 18.7 52.2 19.6 48.9 Q 16.2 54.6 12.5 58.2 Q 8.7 61.7 5.7 61.7 Q 3.1 61.7 1.6 59.4 Q 0 57.2 0 53.3 Q 0 43.8 8.5 33.7 Q 9.9 32 11.7 30.6 Q 13.5 29.2 15.6 28.1 Q 19.9 25.9 23.9 25.9 Q 28.8 25.9 31.7 29.1 Q 32.4 29.8 32.4 30.7 Q 32.4 32.4 30.6 32 Q 29.6 28.4 25.9 28.4 Q 21.7 28.4 16 34.3 Q 14 36.5 12.2 38.85 Q 10.4 41.2 8.8 43.8 Q 4.5 51 4.5 55.5 Q 4.5 58.9 7.1 58.9 Q 10 58.9 13.8 54.5 Q 15.9 52.1 18.1 48.6 Q 20.3 45.1 22.7 40.5 Q 23.7 38.6 24.5 37.4 Q 25.3 36.2 25.8 35.6 Q 27.4 34 29.6 34.1 Z" vector-effect="non-scaling-stroke"/></g></svg>